<svg class="svg-icon" style="width: 1em;height: 1em;vertical-align: middle;fill: currentColor;overflow: hidden;" viewBox="0 0 1024 1024" version="1.1" xmlns="http://www.w3.org/2000/svg"><path d="M512 164.7c12.9 0 25.9 0.7 39.1 2.1 163.3 17.9 294.5 153.8 307 317.6 5.4 71.2-10.4 138-42.2 195.2-15.8 28.4-13.8 63.3 2.4 91.4l27.5 47.5c10.4 18-2.6 40.4-23.3 40.4h-286l0.7-1c-8.4 0.7-16.8 1-25.1 1-23.3 0-46.5-2.6-69.8-7.6C300.1 820.5 187.4 704 168 559.9c-28.5-213 136.5-395.1 344-395.2m0-100.5c-129.1 0-251.9 55.8-337 153-85 97.2-123.8 226.9-106.5 356 24.8 184.7 166.4 336 352.4 376.4 30.3 6.6 61 9.9 91.2 9.9 5.5 0 11-0.1 16.4-0.3 2.7 0.2 5.3 0.3 8 0.3h286c45.4 0 87.7-24.4 110.4-63.8 22.7-39.3 22.7-88.2-0.1-127.5L906.7 723c40.4-75 58.2-160 51.6-246.3C942.3 266.1 771.9 89.9 562 67c-16.6-1.9-33.4-2.8-50-2.8z"  /><path d="M331.4 511.9m-50.3 0a50.3 50.3 0 1 0 100.6 0 50.3 50.3 0 1 0-100.6 0Z"  /><path d="M512 511.9m-50.3 0a50.3 50.3 0 1 0 100.6 0 50.3 50.3 0 1 0-100.6 0Z"  /><path d="M692.6 511.9m-50.3 0a50.3 50.3 0 1 0 100.6 0 50.3 50.3 0 1 0-100.6 0Z"  /></svg>