<svg class="svg-icon" style="width: 1.001953125em; height: 1em;vertical-align: middle;fill: currentColor;overflow: hidden;" viewBox="0 0 1026 1024" version="1.1" xmlns="http://www.w3.org/2000/svg"><path d="M128.512 735.744c-17.408 0-34.304-3.584-50.176-10.24-15.872-6.656-29.184-15.872-40.96-27.136-11.264-11.264-20.48-25.088-27.136-40.96-6.656-15.872-10.24-32.256-10.24-50.176 0-17.408 3.584-34.304 10.24-49.664 6.656-15.36 15.872-28.672 27.136-40.448 11.264-11.264 25.088-20.48 40.96-27.136 15.872-6.656 32.256-10.24 50.176-10.24 3.584 0 7.168 0 10.24 0.512 3.072 0.512 6.144 0.512 9.216 0.512L325.12 266.24c-3.072-6.144-5.12-12.8-6.144-19.968-1.024-7.168-1.536-14.848-1.536-22.528 0-17.408 3.584-34.304 10.24-50.176 6.656-15.872 15.872-29.184 27.136-40.96s25.088-20.48 40.96-27.136c15.872-6.656 32.256-10.24 50.176-10.24 17.408 0 34.304 3.584 50.176 10.24 15.872 6.656 29.184 15.872 40.96 27.136 11.264 11.264 20.48 25.088 27.136 40.96 6.656 15.872 10.24 32.256 10.24 50.176 0 14.336-2.048 28.16-6.656 41.472-4.608 12.8-10.752 25.088-18.432 36.864l153.6 343.552 88.064-157.184c-6.656-10.24-12.288-21.504-16.384-34.304-4.096-12.288-6.144-25.6-6.144-39.424 0-17.408 3.584-34.304 10.24-50.176s15.872-29.184 27.136-40.96c11.264-11.264 25.088-20.48 40.96-27.136 15.872-6.656 32.256-10.24 50.176-10.24 17.408 0 34.304 3.584 50.176 10.24 15.872 6.656 29.696 15.872 41.472 27.136 11.776 11.264 20.992 25.088 27.648 40.96s10.24 32.256 10.24 50.176c0 17.92-3.584 35.328-10.24 50.688-6.656 15.872-15.872 29.696-27.648 41.472-11.776 11.776-25.6 20.992-41.472 27.648-15.872 6.656-32.256 10.24-50.176 10.24h-22.016l-86.528 157.184c13.312 12.288 24.064 26.112 31.744 42.496 7.68 16.384 11.776 34.304 11.776 53.76 0 17.408-3.584 34.304-10.24 50.176-6.656 15.872-15.872 29.696-27.648 41.472-11.776 11.776-25.6 20.992-40.96 27.648-15.36 6.656-32.256 10.24-50.176 10.24s-34.816-3.584-50.176-10.24c-15.36-6.656-28.672-15.872-40.448-27.648-11.264-11.776-20.48-25.6-27.136-41.472-6.656-15.872-10.24-32.256-10.24-50.176 0-19.456 3.584-37.376 11.264-53.76 7.68-16.384 17.92-30.72 31.232-42.496L460.288 352.768c-6.144 1.024-10.752 2.048-14.336 2.048-9.728 0-18.944-1.024-27.648-3.584-8.704-2.56-16.896-5.632-25.088-9.216l-155.136 196.096c6.144 10.24 10.752 21.504 14.336 33.28 3.584 11.776 5.632 24.064 5.632 36.864 0 17.408-3.584 34.304-10.24 50.176-6.656 15.872-15.872 29.184-27.648 40.96-11.776 11.264-25.6 20.48-40.96 27.136-15.36 6.144-32.256 9.216-50.688 9.216z"  /></svg>