<svg class="svg-icon" style="width: 1em; height: 1em;vertical-align: middle;fill: currentColor;overflow: hidden;" viewBox="0 0 1024 1024" version="1.1" xmlns="http://www.w3.org/2000/svg"><path d="M512.298667 233.557333c-90.218667 0-163.626667 73.386667-163.626667 163.605333 0 85.397333 65.258667 214.528 163.626667 214.528 98.368 0 163.626667-129.130667 163.626667-214.528C675.946667 306.965333 602.517333 233.557333 512.298667 233.557333z"  /><path d="M512.298667 78.101333c-241.152 0-437.333333 196.181333-437.333333 437.333333 0 241.130667 196.181333 437.333333 437.333333 437.333333 241.152 0 437.333333-196.181333 437.333333-437.333333C949.653333 274.282667 753.450667 78.101333 512.298667 78.101333zM885.653333 515.434667c0 82.304-27.52 162.688-77.738667 227.754667-55.744-60.352-137.493333-102.528-226.517333-116.437333-1.557333-0.234667-3.136-0.341333-4.714667-0.341333-11.477333 0-22.144 6.122667-27.84 15.978667l-36.053333 62.442667-36.181333-62.656c-6.421333-11.178667-18.517333-17.642667-32.533333-15.658667-89.408 13.610667-171.648 55.701333-227.733333 116.202667-49.984-64.981333-77.376-145.216-77.376-227.306667 0-205.845333 167.488-373.333333 373.333333-373.333333C718.165333 142.101333 885.653333 309.568 885.653333 515.434667z"  /></svg>