<svg class="svg-icon" style="width: 1em;height: 1em;vertical-align: middle;fill: currentColor;overflow: hidden;" viewBox="0 0 1024 1024" version="1.1" xmlns="http://www.w3.org/2000/svg"><path d="M910.933333 96H113.066667a17.066667 17.066667 0 0 0-17.066667 17.066667v797.866666c0 9.386667 7.68 17.066667 17.066667 17.066667h797.866666a17.066667 17.066667 0 0 0 17.066667-17.066667V113.066667a17.066667 17.066667 0 0 0-17.066667-17.066667z m-46.933333 72.533333v686.933334a8.533333 8.533333 0 0 1-8.533333 8.533333H168.533333a8.533333 8.533333 0 0 1-8.533333-8.533333V168.533333c0-4.693333 3.84-8.533333 8.533333-8.533333h686.933334c4.693333 0 8.533333 3.84 8.533333 8.533333z"  /></svg>